<svg xmlns="http://www.w3.org/2000/svg" viewBox="0 0 512 512"><path d="M488 8H112a8 8 0 00-8 8v208H72a8 8 0 00-8 8v69.58L35.72 344H16a8 8 0 00-8 8v112a8 8 0 008 8h22.7l22.77 7.59A8.074 8.074 0 0064 480v16a8 8 0 008 8h112a8 8 0 008-8v-24a8 8 0 00-8-8h-17.38a23.911 23.911 0 00-1.72-19.78 23.955 23.955 0 008-32 23.946 23.946 0 009.72-28.22H216a23.982 23.982 0 0022.62-32H272a8 8 0 007.35-4.85l8.21-19.15H312a8.005 8.005 0 007.49-5.19l4.05-10.81H488a8 8 0 008-8V16a8 8 0 00-8-8zM176 480v8H80v-8zm40-112h-96a8 8 0 000 16h40a8 8 0 010 16h-40a8 8 0 000 16h32a8 8 0 010 16h-32a8 8 0 000 16h24a8 8 0 010 16H65.3l-22.77-7.59A8.074 8.074 0 0040 456H24v-96h16a8.033 8.033 0 006.66-3.56L64 330.42V344a8 8 0 008 8h144a8 8 0 010 16zm50.72-32H80v-96h227.87l-3.43 8H304v1.03zm39.74-24h-12.04l20.57-48h9.47zM480 296H329.54l13.95-37.19A7.992 7.992 0 00336 248h-14.15l5.5-12.85A8 8 0 00320 224H120V24h360z"/><path d="M280 216a8 8 0 008-8V48a8 8 0 00-16 0v160a8 8 0 008 8zM256 216a8 8 0 008-8V48a8 8 0 00-16 0v160a8 8 0 008 8zM216 216a8 8 0 008-8V48a8 8 0 00-16 0v160a8 8 0 008 8zM192 216a8 8 0 008-8V48a8 8 0 00-16 0v160a8 8 0 008 8zM168 216a8 8 0 008-8V48a8 8 0 00-16 0v160a8 8 0 008 8zM144 216a8 8 0 008-8V48a8 8 0 00-16 0v160a8 8 0 008 8zM456 216a8 8 0 008-8V48a8 8 0 00-16 0v160a8 8 0 008 8zM432 216a8 8 0 008-8V48a8 8 0 00-16 0v160a8 8 0 008 8zM392 216a8 8 0 008-8V48a8 8 0 00-16 0v160a8 8 0 008 8zM368 216a8 8 0 008-8V48a8 8 0 00-16 0v160a8 8 0 008 8zM344 216a8 8 0 008-8V48a8 8 0 00-16 0v160a8 8 0 008 8zM320 216a8 8 0 008-8V48a8 8 0 00-16 0v160a8 8 0 008 8zM424 288h40a8 8 0 008-8v-40a8 8 0 00-8-8h-40a8 8 0 00-8 8v40a8 8 0 008 8zm8-40h24v24h-24z"/></svg>
