<svg xmlns="http://www.w3.org/2000/svg" viewBox="0 0 64 64"><path d="M6 5h2v2H6zM56 5h2v2h-2zM56 57h2v2h-2zM6 57h2v2H6zM31 5h2v2h-2zM31 31h2v2h-2zM6 31h2v2H6zM56 31h2v2h-2z"/><path d="M61 10a1 1 0 001-1V3a1 1 0 00-1-1H3a1 1 0 00-1 1v6a1 1 0 001 1h1v18H3a1 1 0 00-1 1v6a1 1 0 001 1h1v18H3a1 1 0 00-1 1v6a1 1 0 001 1h58a1 1 0 001-1v-6a1 1 0 00-1-1h-1V36h1a1 1 0 001-1v-6a1 1 0 00-1-1h-1V10zM48 28v-6.586l4-4V28zm-6-.586l4-4V28h-4zM38.586 28h-5.172l18-18h5.172zM16 10v18h-4V10zm2 0h4v18h-4zm6 0h4v18h-4zm6 0h4v14.586L30.586 28H30zm18.586 0l-.586.586V10zM46 12.586l-4 4V10h4zm-6 6l-4 4V10h4zM4 4h56v4H4zm2 6h4v18H6zm4 26v12.586l-4 4V36zm38 18V36h4v18zm-2 0h-4V36h4zm-6 0h-4V36h4zm-6 0h-4V39.414L33.414 36H34zm-18.586 0l.586-.586V54zM18 51.414l4-4V54h-4zm6-6l4-4V54h-4zM12.586 54H7.414l18-18h5.172zM22 36.586l-4 4V36h4zm-6 6l-4 4V36h4zM60 60H4v-4h56zm-2-6h-4V36h4zm2-20H4v-4h56zm-6-6V15.414l4-4V28z"/></svg>
