<svg xmlns="http://www.w3.org/2000/svg" viewBox="0 0 512 512"><path d="M219.255 355.16l-28.073 28.273a1.473 1.473 0 01-1.063.443h-.002c-.284 0-.698-.076-1.061-.438l-10.427-10.428a7.5 7.5 0 10-10.606 10.605l10.427 10.429a16.392 16.392 0 0011.666 4.832h.029a16.395 16.395 0 0011.681-4.874l28.074-28.274a7.5 7.5 0 00-10.645-10.568zm10.607-204.23a7.5 7.5 0 00-10.607.038l-28.073 28.273a1.47 1.47 0 01-1.062.442h-.003c-.284 0-.698-.076-1.061-.438l-10.427-10.428a7.5 7.5 0 10-10.606 10.605l10.427 10.429a16.388 16.388 0 0011.667 4.832h.03a16.39 16.39 0 0011.68-4.874l28.074-28.273a7.501 7.501 0 00-.039-10.606zm0 102.096a7.5 7.5 0 00-10.607.038l-28.073 28.273a1.47 1.47 0 01-1.062.442h-.003c-.284 0-.698-.076-1.061-.438l-10.427-10.428a7.5 7.5 0 10-10.606 10.605l10.427 10.429a16.388 16.388 0 0011.667 4.832h.03a16.39 16.39 0 0011.68-4.874l28.074-28.273a7.501 7.501 0 00-.039-10.606zm-47.013-110.481h-24.446c-9.098 0-16.5 7.402-16.5 16.5v54.097c0 9.098 7.402 16.5 16.5 16.5H212.5c9.098 0 16.5-7.402 16.5-16.5v-18.978c0-4.143-3.358-7.5-7.5-7.5s-7.5 3.357-7.5 7.5v18.978c0 .827-.673 1.5-1.5 1.5h-54.097c-.827 0-1.5-.673-1.5-1.5v-54.097c0-.827.673-1.5 1.5-1.5h24.446c4.142 0 7.5-3.357 7.5-7.5s-3.358-7.5-7.5-7.5zM412.86 15.4h-34.38c-4.142 0-7.5 3.357-7.5 7.5s3.358 7.5 7.5 7.5h34.38c12.341 0 22.38 10.04 22.38 22.38v421.84c0 12.34-10.04 22.38-22.38 22.38H99.14c-12.341 0-22.38-10.04-22.38-22.38V52.78c0-12.34 10.04-22.38 22.38-22.38h56.803v14.88H104.12c-6.881 0-12.48 5.599-12.48 12.479v308.854c0 4.143 3.358 7.5 7.5 7.5s7.5-3.357 7.5-7.5V60.28h35.637a22.338 22.338 0 00-1.273 7.439v20.802c0 12.374 10.066 22.44 22.439 22.44h185.113c12.373 0 22.439-10.066 22.439-22.44V67.72c0-2.607-.452-5.11-1.273-7.439h35.637v328.83H366.44c-20.61 0-37.378 16.77-37.378 37.383v38.927H106.64v-68.807c0-4.143-3.358-7.5-7.5-7.5s-7.5 3.357-7.5 7.5v71.327c0 6.881 5.599 12.479 12.48 12.479h232.44a7.53 7.53 0 005.304-2.197l.018-.018 76.282-76.292a7.574 7.574 0 002.173-4.824c.004-.067.024-339.16.024-339.33 0-6.881-5.599-12.479-12.48-12.479h-51.823V24.473C356.057 10.979 345.08 0 331.587 0H180.413c-10.288 0-19.107 6.386-22.719 15.4H99.14c-20.612 0-37.38 16.769-37.38 37.38v421.84c0 20.611 16.769 37.38 37.38 37.38h313.72c20.612 0 37.38-16.769 37.38-37.38V52.78c0-20.611-16.768-37.38-37.38-37.38zm-68.797 439.409v-28.315c0-12.342 10.039-22.383 22.378-22.383h28.313zM170.943 24.473c0-5.224 4.248-9.473 9.47-9.473h151.174c5.222 0 9.47 4.249 9.47 9.473v27.521c0 5.224-4.248 9.473-9.47 9.473H180.413c-5.222 0-9.47-4.249-9.47-9.473zM156.004 67.72c0-2.091.869-3.98 2.262-5.333 3.915 8.311 12.368 14.079 22.147 14.079h151.174c9.778 0 18.232-5.768 22.147-14.079a7.415 7.415 0 012.262 5.333v20.802c0 4.103-3.337 7.44-7.439 7.44H163.443c-4.102 0-7.439-3.338-7.439-7.44zm-14.101 247.518c0 9.098 7.402 16.5 16.5 16.5H212.5c9.098 0 16.5-7.402 16.5-16.5V296.26c0-4.143-3.358-7.5-7.5-7.5s-7.5 3.357-7.5 7.5v18.978c0 .827-.673 1.5-1.5 1.5h-54.097c-.827 0-1.5-.673-1.5-1.5v-54.097c0-.827.673-1.5 1.5-1.5h24.446c4.142 0 7.5-3.357 7.5-7.5s-3.358-7.5-7.5-7.5h-24.446c-9.098 0-16.5 7.402-16.5 16.5zm113.722 46.5h106.972c4.142 0 7.5-3.357 7.5-7.5s-3.358-7.5-7.5-7.5H255.625c-4.142 0-7.5 3.357-7.5 7.5s3.358 7.5 7.5 7.5zm-113.722 55.596c0 9.098 7.402 16.5 16.5 16.5H212.5c9.098 0 16.5-7.402 16.5-16.5v-18.977c0-4.143-3.358-7.5-7.5-7.5s-7.5 3.357-7.5 7.5v18.977c0 .827-.673 1.5-1.5 1.5h-54.097c-.827 0-1.5-.673-1.5-1.5v-54.096c0-.827.673-1.5 1.5-1.5h24.446c4.142 0 7.5-3.357 7.5-7.5s-3.358-7.5-7.5-7.5h-24.446c-9.098 0-16.5 7.402-16.5 16.5zm113.722-25.596h61.972c4.142 0 7.5-3.357 7.5-7.5s-3.358-7.5-7.5-7.5h-61.972c-4.142 0-7.5 3.357-7.5 7.5s3.358 7.5 7.5 7.5zm0-102.096h61.972c4.142 0 7.5-3.357 7.5-7.5s-3.358-7.5-7.5-7.5h-61.972c-4.142 0-7.5 3.357-7.5 7.5s3.358 7.5 7.5 7.5zm0-30h106.972c4.142 0 7.5-3.357 7.5-7.5s-3.358-7.5-7.5-7.5H255.625c-4.142 0-7.5 3.357-7.5 7.5s3.358 7.5 7.5 7.5zm0-72.097h106.972c4.142 0 7.5-3.357 7.5-7.5s-3.358-7.5-7.5-7.5H255.625c-4.142 0-7.5 3.357-7.5 7.5s3.358 7.5 7.5 7.5zm0-30h106.972c4.142 0 7.5-3.357 7.5-7.5s-3.358-7.5-7.5-7.5H255.625c-4.142 0-7.5 3.357-7.5 7.5s3.358 7.5 7.5 7.5z"/></svg>
