<svg xmlns="http://www.w3.org/2000/svg" viewBox="0 0 511.067 511.067"><path d="M496.052 112.3L365.367 8.596C357.051 1.997 346.67-.946 336.121.317c-10.524 1.259-19.911 6.551-26.435 14.902L225.4 120.14c-27.177.782-53.463 6.782-77.705 17.485l-13.213-15.259a23.576 23.576 0 00-16.923-8.102c-6.504-.219-12.861 2.27-17.46 6.868L77.53 143.703c-8.673 8.673-9.177 22.729-1.147 32l6.293 7.268c-36.1 37.139-56.704 85.493-58.528 137.065H7.5c-4.143 0-7.5 3.358-7.5 7.5s3.357 7.5 7.5 7.5h46.351a7.46 7.46 0 00-3.125 1.521 7.5 7.5 0 00-2.073 8.844c.512 1.146 12.112 26.417 38.977 29.386a150.972 150.972 0 004.83 12.74c-6.063 6.402-12.549 8.727-19.334 6.908a7.501 7.501 0 00-7.333 12.458c.875.903 20.449 20.728 46.732 14.296a152.946 152.946 0 008.858 10.279c-3.509 8.109-8.816 12.522-15.819 13.135a7.498 7.498 0 00-2.63 14.214c1.13.55 26.29 12.486 48.786-2.538a152.184 152.184 0 0011.855 6.646c-.529 8.805-4.007 14.758-10.371 17.726a7.501 7.501 0 002.396 14.258c1.248.129 28.943 2.716 44.945-19.073 4.435.923 8.926 1.65 13.433 2.174 2.521 8.464 1.291 15.253-3.678 20.222a7.501 7.501 0 007.127 12.578c1.218-.306 28.134-7.35 35.714-33.304a151.85 151.85 0 0013.376-2.527c5.254 7.085 6.416 13.881 3.449 20.244a7.498 7.498 0 0010.999 9.381c1.04-.703 23.918-16.524 22.171-43.5a152.01 152.01 0 0011.693-6.966c7.368 4.862 10.788 10.853 10.176 17.851a7.498 7.498 0 004.848 7.679 7.494 7.494 0 008.694-2.622c.738-1.018 16.865-23.737 5.963-48.506a152.983 152.983 0 008.59-10.506c8.594 2.048 13.86 6.508 15.68 13.297a7.499 7.499 0 007.184 5.558h.062a7.498 7.498 0 007.211-5.443c.345-1.207 7.699-28.025-10.971-47.566a151.412 151.412 0 004.492-12.863c8.769-1.005 15.225 1.387 19.25 7.136a7.5 7.5 0 0013.625-4.836c-.084-1.167-2.063-25.308-21.936-38.285H455.5c4.143 0 7.5-3.358 7.5-7.5s-3.357-7.5-7.5-7.5h-16.643c-.753-21.211-4.692-41.981-11.762-61.895l75.833-90.988c.088-.105.173-.213.254-.323 12.826-17.224 9.694-41.177-7.13-54.526zM88.138 154.309l22.569-22.569c1.688-1.688 3.937-2.558 6.314-2.484a8.413 8.413 0 016.121 2.931l10.602 12.244a207.318 207.318 0 00-40.226 28.148l-5.797-6.695c-2.903-3.354-2.721-8.438.417-11.575zM59.802 336.198a7.441 7.441 0 00-2.707-1.162h23.213c.021.424.031.844.056 1.268-7.902 3.956-14.805 3.926-20.562-.106zm267.009-16.162c-3.838-49.167-45.071-88-95.207-88s-91.369 38.833-95.207 88h-33.173c3.897-67.377 59.938-121 128.275-121s124.378 53.623 128.275 121zm-142.109 15c3.607 22.64 23.263 40 46.902 40s43.295-17.36 46.902-40h33.236c-3.797 40.883-38.281 73-80.138 73s-76.342-32.117-80.138-73zm78.519 0c-3.396 14.315-16.278 25-31.617 25s-28.221-10.685-31.617-25zm-63.233-15c3.396-14.315 16.278-25 31.617-25s28.221 10.685 31.617 25zm78.519 0c-3.607-22.64-23.263-40-46.902-40s-43.295 17.36-46.902 40h-33.236c3.797-40.883 38.281-73 80.138-73s76.342 32.117 80.138 73zm94.274 24.263c7.392 2.603 12.305 7.326 15.563 12.272-5.739-1.153-12.174-.995-19.125.53a7.5 7.5 0 00-5.645 5.41 135.764 135.764 0 01-7.112 20.25 7.5 7.5 0 002.092 8.83c6.042 4.971 9.038 11.083 10.407 16.837-5.005-3.051-11.114-5.104-18.183-6.047a7.495 7.495 0 00-7.144 3.143 137.663 137.663 0 01-13.597 16.571 7.501 7.501 0 00-1.046 9.017c3.999 6.756 4.723 13.545 4.032 19.436-3.66-4.586-8.703-8.61-15.029-11.917a7.499 7.499 0 00-7.799.519 136.767 136.767 0 01-18.454 10.952 7.498 7.498 0 00-4.063 8.105c1.434 7.693-.199 14.301-2.85 19.59-1.871-5.548-5.226-11.041-10.024-16.3a7.5 7.5 0 00-7.497-2.185 136.34 136.34 0 01-21.093 3.947 7.499 7.499 0 00-6.606 6.231c-1.281 7.728-5.077 13.383-9.381 17.45.14-5.862-1.138-12.182-3.857-18.776a7.5 7.5 0 00-6.308-4.615 136.593 136.593 0 01-21.172-3.464 7.5 7.5 0 00-8.322 3.596c-3.847 6.815-9.346 10.828-14.776 13.176 2.133-5.453 3.095-11.817 2.799-18.931a7.498 7.498 0 00-4.338-6.493 136.72 136.72 0 01-18.687-10.52 7.5 7.5 0 00-9.064.53c-5.956 5.105-12.51 6.994-18.428 7.336 3.883-4.404 6.972-10.073 9.13-16.883a7.497 7.497 0 00-1.86-7.583 137.577 137.577 0 01-13.964-16.259 7.498 7.498 0 00-8.693-2.59c-7.349 2.764-14.156 2.296-19.837.594 5.146-2.806 9.981-7.067 14.333-12.713a7.5 7.5 0 00.846-7.772 135.822 135.822 0 01-7.575-20.083 7.5 7.5 0 00-7.204-5.418l-.383.002c-7.676 0-13.797-2.729-18.481-6.21 5.797-.881 11.801-3.236 17.823-7.059a7.502 7.502 0 003.451-6.998 142.89 142.89 0 01-.337-4.768h41.075c3.838 49.167 45.071 88 95.207 88s91.369-38.833 95.207-88h41.063c-.031.566-.048 1.121-.085 1.691a7.495 7.495 0 004.991 7.569zm118.484-186.581l-78.463 94.144a7.5 7.5 0 00-1.251 7.46c7.379 19.465 11.509 39.854 12.306 60.714h-49.05c-3.916-75.653-66.696-136-143.307-136s-139.392 60.347-143.307 136H39.146c3.947-101.458 87.661-183.741 189.999-184.969a7.5 7.5 0 005.757-2.802l86.515-107.696.069-.088c4.048-5.195 9.879-8.488 16.418-9.27 6.533-.782 12.979 1.041 18.14 5.135L486.728 124.05c10.384 8.24 12.359 22.993 4.537 33.668z"/><path d="M453.34 139.682L347.991 56.084c-3.258-2.587-8.157-1.953-10.655 1.365l-39.529 52.528a7.502 7.502 0 001.242 10.313l22.055 18.056a7.5 7.5 0 009.502-11.606l-16.484-13.495 30.573-40.627 93.456 74.161-32.647 41.277-49.34-40.394a7.5 7.5 0 10-9.502 11.606l55.242 45.225c3.2 2.62 8.07 2.09 10.634-1.151l42.023-53.133a7.5 7.5 0 00-1.221-10.527zM327.5 160.036c-12.958 0-23.5 10.542-23.5 23.5s10.542 23.5 23.5 23.5 23.5-10.542 23.5-23.5-10.542-23.5-23.5-23.5zm0 32c-4.687 0-8.5-3.813-8.5-8.5s3.813-8.5 8.5-8.5 8.5 3.813 8.5 8.5-3.813 8.5-8.5 8.5z"/></svg>
