<svg xmlns="http://www.w3.org/2000/svg" viewBox="0 0 512 512"><path d="M392 8H40a8 8 0 00-8 8v480a8 8 0 008 8h352a8 8 0 008-8V16a8 8 0 00-8-8zM144 24h144v36a12.01 12.01 0 01-12 12H156a12.01 12.01 0 01-12-12zm12 64h120a28.031 28.031 0 0028-28v-4h48v400H80V56h48v4a28.031 28.031 0 0028 28zm228 400H48V24h80v16H72a8 8 0 00-8 8v416a8 8 0 008 8h288a8 8 0 008-8V48a8 8 0 00-8-8h-56V24h80z"/><path d="M284 112H148a20.02 20.02 0 00-20 20v136a20.02 20.02 0 0020 20h136a20.02 20.02 0 0020-20V132a20.02 20.02 0 00-20-20zm-92 16h48v59.06l-20.42-10.22a8.049 8.049 0 00-7.16 0L192 187.06zm96 140a4 4 0 01-4 4H148a4 4 0 01-4-4V132a4 4 0 014-4h28v72a8 8 0 0011.58 7.16L216 192.94l28.42 14.22A8 8 0 00256 200v-72h28a4 4 0 014 4zM280 344v-32a8 8 0 00-8-8H160a8 8 0 00-8 8v32a8 8 0 008 8h112a8 8 0 008-8zm-16-8h-96v-16h96zM184 368a8 8 0 000 16h64a8 8 0 000-16zM128 392a8 8 0 000 16h176a8 8 0 000-16zM272 416H160a8 8 0 000 16h112a8 8 0 000-16zM479.16 100.42l-24-48a8.009 8.009 0 00-14.32 0l-24 48A8.081 8.081 0 00416 104v332a28.031 28.031 0 0028 28h8a28.031 28.031 0 0028-28V104a8.081 8.081 0 00-.84-3.58zM464 436a12.01 12.01 0 01-12 12h-8a12.01 12.01 0 01-12-12v-20h32zm0-36h-32v-8h32zm0-24h-32V128h32zm0-264h-32v-6.11l16-32 16 32z"/></svg>
