<svg xmlns="http://www.w3.org/2000/svg" viewBox="0 0 64 64"><path d="M63 21.536A4.541 4.541 0 0058.464 17a4.504 4.504 0 00-3.207 1.329l-2.964 2.964L49 24.586V14.92c3.387-.488 6-3.401 6-6.92 0-3.86-3.14-7-7-7H8C4.14 1 1 4.14 1 8v50a1 1 0 001 1h5v3a1 1 0 001 1h40a1 1 0 001-1V37.414l9.707-9.707 1.027-1.027a13.399 13.399 0 01-3.683 6.855l-4.757 4.757 1.414 1.414 4.757-4.757c2.838-2.838 4.425-6.586 4.518-10.585A4.484 4.484 0 0063 21.536zm-6.329-1.793A2.52 2.52 0 0158.464 19 2.54 2.54 0 0161 21.536a2.52 2.52 0 01-.743 1.793L58 25.586 54.414 22zM53 23.414l1.086 1.086L41.5 37.086 40.414 36zM29.217 49.803l2.057-4.115 3.038 3.038-4.115 2.057zM32.414 44L39 37.414 42.586 41 36 47.586zM48 3c2.757 0 5 2.243 5 5s-2.243 5-5 5H12.89a6.977 6.977 0 000-10zM9 12.899V10c0-.551.449-1 1-1h2.899A5.016 5.016 0 019 12.899zM3 57V8c0-2.757 2.243-5 5-5a5.01 5.01 0 014.899 4H10c-1.654 0-3 1.346-3 3v47zm44 4H9V15h38v11.586L42.586 31H13v2h27.586l-2 2H13v2h23.586l-6.293 6.293a.98.98 0 00-.176.265l-.011-.006-3 6a1 1 0 00.188 1.154l.292.294-2.293 2.293 1.414 1.414L29 52.414l.293.293a1 1 0 001.154.188l6-3-.006-.011a.98.98 0 00.265-.176l8-8L47 39.414zm-3-21.414L42.914 38.5 55.5 25.914 56.586 27z"/><path d="M13 19h30v2H13zM13 23h30v2H13zM13 27h30v2H13zM13 51h11v2H13zM13 55h30v2H13z"/></svg>
