<svg xmlns="http://www.w3.org/2000/svg" viewBox="0 0 24 24"><path d="M4 6.75A4.756 4.756 0 018.75 2h9.133a2.745 2.745 0 00-2.633-2H3.75A2.752 2.752 0 001 2.75v15.5A2.752 2.752 0 003.75 21H4z"/><path d="M20.25 4H8.75A2.752 2.752 0 006 6.75v14.5A2.752 2.752 0 008.75 24h11.5A2.752 2.752 0 0023 21.25V6.75A2.752 2.752 0 0020.25 4zm-2 17h-7.5a.75.75 0 010-1.5h7.5a.75.75 0 010 1.5zm0-4h-7.5a.75.75 0 010-1.5h7.5a.75.75 0 010 1.5zm0-3.5h-7.5a.75.75 0 010-1.5h7.5a.75.75 0 010 1.5zm0-4h-7.5a.75.75 0 010-1.5h7.5a.75.75 0 010 1.5z"/></svg>
