<svg xmlns="http://www.w3.org/2000/svg" viewBox="0 0 512 512"><path d="M496 408a8 8 0 008-8v-24a8 8 0 00-8-8h-64V40a8 8 0 00-8-8H88a8 8 0 00-8 8v328H16a8 8 0 00-8 8v24a8 8 0 008 8h24v32H16a8 8 0 00-8 8v24a8 8 0 008 8h480a8 8 0 008-8v-24a8 8 0 00-8-8h-24v-32zM96 48h320v320H96zm392 408v8H24v-8zM56 440v-32h16v32zm32 0v-32h80v32zm96 0v-32h16v32zm32 0v-32h80v32zm96 0v-32h16v32zm32 0v-32h80v32zm96 0v-32h16v32zM24 392v-8h464v8z"/><path d="M392 302.063V80a8 8 0 00-8-8H128a8 8 0 00-8 8v256a8 8 0 008 8h256a8 8 0 008-8zm-16-19.316L301.253 208 376 133.253zm0-172.121l-86.06 86.061-22.627-22.627L353.374 88H376zM181.253 88h149.494L256 162.747zM136 133.253L210.747 208 136 282.747zm0 172.121l86.06-86.061 22.627 22.627L158.626 328H136zM330.747 328H181.253L256 253.253zm22.627 0L136 110.626V88h22.626L376 305.374V328z"/><circle cx="112" cy="64" r="8"/><circle cx="400" cy="64" r="8"/><circle cx="112" cy="352" r="8"/><circle cx="400" cy="352" r="8"/></svg>
