<svg xmlns="http://www.w3.org/2000/svg" viewBox="0 0 512 512"><path d="M206.786 228.623a7.478 7.478 0 005.375 2.269 7.479 7.479 0 005.23-2.125l19.356-18.841a7.503 7.503 0 000-10.75l-19.356-18.841a7.5 7.5 0 10-10.462 10.749l13.835 13.466-13.835 13.466a7.501 7.501 0 00-.143 10.607zM62.6 252.743a7.498 7.498 0 0010.592-.562l2.212-2.46v20.846c0 4.143 3.357 7.5 7.5 7.5s7.5-3.357 7.5-7.5v-20.846l2.212 2.46a7.48 7.48 0 005.579 2.485 7.5 7.5 0 005.575-12.515L88.48 225.15a7.5 7.5 0 00-11.154 0l-15.289 17.001a7.501 7.501 0 00.563 10.592zM137.502 278.068c4.143 0 7.5-3.357 7.5-7.5v-20.846l2.212 2.46a7.5 7.5 0 1011.154-10.03l-15.289-17.001a7.5 7.5 0 00-11.153 0l-15.29 17.001a7.5 7.5 0 005.574 12.515 7.477 7.477 0 005.579-2.485l2.214-2.461v20.848a7.498 7.498 0 007.499 7.499zM407.576 360.352c-14.459 0-26.223 11.764-26.223 26.223 0 14.46 11.764 26.224 26.223 26.224 14.46 0 26.224-11.764 26.224-26.224 0-14.459-11.764-26.223-26.224-26.223zm0 37.446c-6.188 0-11.223-5.035-11.223-11.224s5.034-11.223 11.223-11.223 11.224 5.034 11.224 11.223-5.035 11.224-11.224 11.224zM93.944 386.575c0 14.46 11.764 26.224 26.223 26.224 14.46 0 26.224-11.764 26.224-26.224 0-14.459-11.764-26.223-26.224-26.223-14.459 0-26.223 11.764-26.223 26.223zm37.447 0c0 6.188-5.035 11.224-11.224 11.224s-11.223-5.035-11.223-11.224 5.034-11.223 11.223-11.223 11.224 5.034 11.224 11.223z"/><path d="M507.413 253.9l-43.607-79.845a17.048 17.048 0 00-14.97-8.881H315.354c-9.404 0-17.056 7.651-17.056 17.056v42.099c0 4.142 3.357 7.5 7.5 7.5s7.5-3.358 7.5-7.5V182.23c0-1.134.922-2.056 2.056-2.056h56.001v91.328c0 9.502 7.73 17.232 17.232 17.232H497v17.254h-7.103c-10.538 0-19.111 8.573-19.111 19.111s8.573 19.111 19.111 19.111H497v14.967h-31.768c-10.273-21.531-32.253-36.447-57.656-36.447s-47.382 14.916-57.655 36.447h-36.623V254.316c0-4.142-3.357-7.5-7.5-7.5s-7.5 3.358-7.5 7.5v44.928h-22.39V72.504c0-6.023-4.9-10.924-10.924-10.924H97.896c-4.143 0-7.5 3.358-7.5 7.5s3.357 7.5 7.5 7.5h23.674v45.717c0 5.899 4.799 10.699 10.698 10.699h41.044c5.899 0 10.699-4.799 10.699-10.699V76.581h76.896v222.664H44.674V76.581h23.235c4.143 0 7.5-3.358 7.5-7.5s-3.357-7.5-7.5-7.5H40.598c-6.023 0-10.924 4.9-10.924 10.924v226.74H7.5a7.499 7.499 0 00-7.5 7.5v40.191c0 15.021 12.221 27.242 27.242 27.242H34.7v8.005H7.5c-4.143 0-7.5 3.357-7.5 7.5s3.357 7.5 7.5 7.5h34.7c4.143 0 7.5-3.357 7.5-7.5v-15.505h7.84a63.867 63.867 0 00-1.218 12.396c0 35.204 28.641 63.845 63.845 63.845a63.64 63.64 0 0034.091-9.874 7.499 7.499 0 002.326-10.348 7.498 7.498 0 00-10.348-2.326 48.67 48.67 0 01-26.069 7.548c-26.933 0-48.845-21.912-48.845-48.845s21.912-48.844 48.845-48.844 48.845 21.911 48.845 48.844c0 7.737-1.769 15.15-5.257 22.034-1.872 3.694-.395 8.208 3.301 10.08s8.207.396 10.08-3.301c4.562-9.004 6.876-18.698 6.876-28.813 0-4.241-.425-8.384-1.218-12.396h36.82v5.532c0 11.276 9.175 20.45 20.451 20.45h65.884c11.276 0 20.45-9.174 20.45-20.45v-5.532h18.552a63.867 63.867 0 00-1.218 12.396c0 35.204 28.641 63.845 63.844 63.845 35.204 0 63.845-28.641 63.845-63.845 0-4.241-.425-8.384-1.218-12.396h26.953c8.185 0 14.844-6.659 14.844-14.845V271.87a37.622 37.622 0 00-4.588-17.97zM169.012 117.996H136.57V76.581h32.441v41.415zm-48.845 204.735c-25.403 0-47.383 14.916-57.656 36.447H27.242c-6.75 0-12.242-5.492-12.242-12.242v-32.691h283.298v44.934H177.823c-10.273-21.532-32.253-36.448-57.656-36.448zm191.231 56.979a5.456 5.456 0 01-5.45 5.45h-65.884a5.457 5.457 0 01-5.451-5.45v-5.532h76.785zm96.178 55.709c-26.933 0-48.844-21.912-48.844-48.845s21.911-48.844 48.844-48.844 48.845 21.911 48.845 48.844-21.912 48.845-48.845 48.845zm41.26-255.245c.749 0 1.442.406 1.804 1.07h.001l43.607 79.845c3.368 6.167 2.652 11.664 2.752 12.646h-3.672l-25.701-25.7 3.409-3.409a7.5 7.5 0 00-10.607-10.606l-17.424 17.424a7.5 7.5 0 0010.607 10.607l3.408-3.408 15.093 15.093h-52.472l-1.879-41.31c-.789-17.351-14.366-31.115-31.407-32.408v-19.843h62.481zm-62.482 91.328v-56.394c8.987 1.234 15.999 8.685 16.423 17.999l1.848 40.628h-16.039a2.236 2.236 0 01-2.232-2.233zm103.543 57.709c-2.267 0-4.111-1.845-4.111-4.111s1.845-4.111 4.111-4.111H497v8.223h-7.103z"/><path d="M348.327 247.167v-26.058c0-4.142-3.357-7.5-7.5-7.5s-7.5 3.358-7.5 7.5v26.058c0 4.142 3.357 7.5 7.5 7.5s7.5-3.358 7.5-7.5z"/></svg>
