<svg xmlns="http://www.w3.org/2000/svg" viewBox="0 0 54.6 54.6" xml:space="preserve"><path d="M27.3 54.6C12.2 54.6 0 42.3 0 27.3 0 12.2 12.2 0 27.3 0c15 0 27.3 12.2 27.3 27.3 0 15-12.3 27.3-27.3 27.3zm0-51.7c-13.4 0-24.4 11-24.4 24.4 0 13.4 10.9 24.4 24.4 24.4 13.4 0 24.4-10.9 24.4-24.4 0-13.4-11-24.4-24.4-24.4z"/><path d="M23 27.4v15.8c0 .2.2.4.4.4h5.9c.2 0 .4-.2.4-.4v-16H34c.2 0 .4-.2.4-.4l.4-4.8c0-.2-.2-.4-.4-.4h-4.7v-3.4c0-.8.7-1.5 1.5-1.5h3.3c.2 0 .4-.2.4-.4v-4.8c0-.2-.2-.4-.4-.4H29c-3.3 0-5.9 2.6-5.9 5.9v4.7h-2.9c-.2 0-.4.2-.4.4v4.8c0 .2.2.4.4.4H23v.1z" fill-rule="evenodd" clip-rule="evenodd"/></svg>
