<svg xmlns="http://www.w3.org/2000/svg" viewBox="0 0 511.288 511.288"><path d="M400.217 222.308l-30.061-35.407a63.3 63.3 0 00-37.591-21.451v-26.045h21.946c1.351 7.274 7.733 12.803 15.393 12.803h22.521c8.639 0 15.667-7.028 15.667-15.667V85.705c0-8.639-7.028-15.666-15.667-15.666h-22.521c-6.704 0-12.421 4.24-14.653 10.172h-64.503V49.687h52.199c7.1 0 12.875-5.775 12.875-12.875V12.875C355.822 5.776 350.047 0 342.947 0h-55.315c-4.143 0-7.5 3.358-7.5 7.5s3.357 7.5 7.5 7.5h53.19v19.687H225.675V15h31.957c4.143 0 7.5-3.358 7.5-7.5s-3.357-7.5-7.5-7.5H223.55c-7.1 0-12.875 5.776-12.875 12.875v23.938c0 7.099 5.775 12.875 12.875 12.875h52.198v30.524h-46.827a99.058 99.058 0 00-52.766 15.202l-52.241 32.826c-17.483 10.985-27.921 29.871-27.921 50.519a15.947 15.947 0 0024.492 13.465l62.595-39.717a84.044 84.044 0 0145.099-13.101h5.753v26.045a63.294 63.294 0 00-37.59 21.451l-30.062 35.406a63.49 63.49 0 00-15.078 41.053v114.378c0 4.142 3.357 7.5 7.5 7.5s7.5-3.358 7.5-7.5V263.36a48.482 48.482 0 0111.512-31.344l30.063-35.407a48.346 48.346 0 0136.916-17.084h77.113a48.35 48.35 0 0136.917 17.084l30.061 35.407a48.48 48.48 0 0111.512 31.344v10.648h-97.499c-15.459 0-28.035 12.577-28.035 28.036v109.361c0 15.459 12.576 28.036 28.035 28.036h97.499v20.42c0 11.093-4.96 21.44-13.609 28.388s-19.821 9.562-30.655 7.167c-47.615-10.515-97.949-10.515-145.564 0-10.834 2.395-22.006-.22-30.655-7.167s-13.609-17.294-13.609-28.388v-52.123c0-4.142-3.357-7.5-7.5-7.5s-7.5 3.358-7.5 7.5v52.123c0 15.664 7.004 30.273 19.216 40.082 9.245 7.426 20.532 11.345 32.108 11.345 3.714 0 7.459-.404 11.175-1.224 45.498-10.048 93.598-10.048 139.096 0 15.298 3.375 31.072-.312 43.283-10.121 12.212-9.809 19.216-24.418 19.216-40.082V263.36a63.51 63.51 0 00-15.081-41.052zm-30.98-136.603c0-.368.299-.666.667-.666h22.521c.368 0 .667.299.667.666v50.836a.667.667 0 01-.667.667h-22.521a.667.667 0 01-.667-.667V87.711zM175.042 139.84l-62.595 39.717c-.128.082-.471.302-.963.03-.491-.27-.491-.676-.491-.83 0-15.457 7.813-29.594 20.901-37.818l52.241-32.826A84.076 84.076 0 01228.92 95.21h125.316v29.193h-126.06a99.046 99.046 0 00-53.134 15.437zm142.523-.435v25.12H248.93v-25.12zM302.796 424.44c-7.188 0-13.035-5.848-13.035-13.036V302.043c0-7.188 5.848-13.036 13.035-13.036h97.499v20.299h-77.778c-4.143 0-7.5 3.358-7.5 7.5s3.357 7.5 7.5 7.5h77.778v19.484h-77.778c-4.143 0-7.5 3.358-7.5 7.5s3.357 7.5 7.5 7.5h77.778v19.484h-77.778c-4.143 0-7.5 3.358-7.5 7.5s3.357 7.5 7.5 7.5h77.778v31.165h-97.499z"/></svg>
