<svg xmlns="http://www.w3.org/2000/svg" viewBox="0 0 64 64"><path d="M62 15H33.414l-5.707-5.707A.996.996 0 0027 9H15c-.197 0-.391.059-.555.168L5.697 15H2a1 1 0 00-1 1v14a1 1 0 001 1h17v7a1 1 0 001 1h42a1 1 0 001-1V16a1 1 0 00-1-1zM3 29V17h3c.197 0 .391-.059.555-.168L15.303 11h11.283l4 4H20a1 1 0 00-1 1v8a1 1 0 001 1h7c1.103 0 2 .897 2 2s-.897 2-2 2zm44-2c0 3.309-2.691 6-6 6s-6-2.691-6-6 2.691-6 6-6 6 2.691 6 6zm-.726-6H57v12H46.274C47.941 31.533 49 29.39 49 27s-1.059-4.533-2.726-6zM33 27a7.976 7.976 0 002.726 6H25v-2h2c2.206 0 4-1.794 4-4s-1.794-4-4-4h-2v-2h10.726A7.976 7.976 0 0033 27zm28 10H21v-6h2v3a1 1 0 001 1h34a1 1 0 001-1V20a1 1 0 00-1-1H24a1 1 0 00-1 1v3h-2v-6h40zM62.479 48.123l-6.874-3.76A9.995 9.995 0 0050.566 43h-.245c-.973 0-1.939.142-2.874.421l-7.1 2.13a3.27 3.27 0 00-2.295 2.562l-7.665-6.271A3.748 3.748 0 0028.024 41h-.292A3.737 3.737 0 0024 44.732c0 1.101.481 2.139 1.322 2.85l12.032 10.181A1 1 0 0038 58h15.713l7.757 4.848A1 1 0 0063 62V49a.997.997 0 00-.521-.877zM61 60.196l-6.47-4.044A1.002 1.002 0 0054 56H38.366l-11.753-9.945A1.734 1.734 0 0127.732 43h.292c.398 0 .788.139 1.098.392l10.245 8.382c.179.146.403.226.633.226h8v-2h-6.706a1.295 1.295 0 01-.372-2.532l7.1-2.13a8.003 8.003 0 012.3-.337h.245c1.416 0 2.81.377 4.056 1.104L61 49.593zM47.684 7.949a4.738 4.738 0 013.113 3.362l.233.932a1 1 0 001.94 0l.233-.932a4.742 4.742 0 013.113-3.362 1.001 1.001 0 000-1.898 4.738 4.738 0 01-3.113-3.362l-.233-.932a1 1 0 00-1.94 0l-.233.932a4.742 4.742 0 01-3.113 3.362 1.001 1.001 0 000 1.898zM52 4.978A6.713 6.713 0 0053.837 7 6.713 6.713 0 0052 9.022 6.713 6.713 0 0050.163 7 6.713 6.713 0 0052 4.978zM16.316 44.051a4.738 4.738 0 01-3.113-3.362l-.233-.932a1 1 0 00-1.94 0l-.233.932a4.742 4.742 0 01-3.113 3.362 1.001 1.001 0 000 1.898 4.738 4.738 0 013.113 3.362l.233.932a1 1 0 001.94 0l.233-.932a4.742 4.742 0 013.113-3.362 1.001 1.001 0 000-1.898zM12 47.022A6.702 6.702 0 0010.163 45 6.713 6.713 0 0012 42.978 6.702 6.702 0 0013.837 45 6.713 6.713 0 0012 47.022z"/></svg>
