<svg xmlns="http://www.w3.org/2000/svg" viewBox="0 0 39.5 35.5" xml:space="preserve"><path d="M16.8 30.8v-6l-7.1-7.1c-.8-.8-2-.8-2.8 0l-.2.2c-.8.8-.8 2 0 2.8l4.6 4.6"/><path d="M4.8 15.8h0v-9c0-1.1-.9-2-2-2h0c-1.1 0-2 .9-2 2V18c0 2.4.9 4.7 2.6 6.4l5.4 5.4v1M22.8 30.8v-6l7.1-7.1c.8-.8 2-.8 2.8 0l.2.2c.8.8.8 2 0 2.8l-4.6 4.6"/><path d="M34.8 15.8h0v-9c0-1.1.9-2 2-2h0c1.1 0 2 .9 2 2V18c0 2.4-.9 4.7-2.6 6.4l-5.4 5.4v1"/><circle cx="19.8" cy="9.8" r="9"/><path d="M7.8 34.8v-2h10v2M21.8 34.8v-2h10v2"/></svg>
