<svg xmlns="http://www.w3.org/2000/svg" viewBox="0 0 512 512"><path d="M273.273 363.046h.065a7.5 7.5 0 007.499-7.436c.028-3.347.124-14.618.225-28.9h8.292c4.143 0 7.5-3.357 7.5-7.5s-3.357-7.5-7.5-7.5h-8.191c.192-30.804.329-66.892-.044-71.367-.601-7.213-4.747-13.037-10.563-14.839-2.726-.844-9.803-1.902-16.638 6.484-6.98 8.564-44.218 75.944-48.441 83.599a7.502 7.502 0 006.567 11.124h54.019c-.07 10.073-.147 19.908-.225 28.771a7.5 7.5 0 007.435 7.564zm-48.501-51.336c15.696-28.227 36.725-65.278 40.772-70.245.188-.23.361-.429.521-.6.046.216.083.457.105.724.298 3.578.201 36.16-.01 70.121zM167.856 289.919c-19.578 27.973-31.268 43.279-37.548 51.503-7.446 9.75-9.216 12.066-7.813 16.627.776 2.526 2.713 4.473 5.314 5.34 1.01.337 2.643.881 25.923.881 9.242 0 21.896-.086 39.278-.305a7.498 7.498 0 007.404-7.594 7.5 7.5 0 00-7.497-7.405l-.097.001c-17.901.225-37.435.345-49.598.257 6.555-8.587 18.154-23.888 36.922-50.703 7.391-10.562 12.186-20.43 14.25-29.333.214-1.213.757-5.235.803-6.457 0-21.506-17.496-39.002-39.002-39.002-18.596 0-34.69 13.227-38.271 31.45a7.5 7.5 0 0014.719 2.891c2.201-11.207 12.106-19.341 23.552-19.341 13.086 0 23.76 10.526 23.998 23.557l-.494 3.865c-1.678 6.943-5.662 14.937-11.843 23.768zM451.676 53.291h-98.677c-4.143 0-7.5 3.357-7.5 7.5s3.357 7.5 7.5 7.5h98.677c4.143 0 7.5-3.357 7.5-7.5s-3.358-7.5-7.5-7.5zM451.676 86.67h-98.677c-4.143 0-7.5 3.357-7.5 7.5s3.357 7.5 7.5 7.5h98.677c4.143 0 7.5-3.357 7.5-7.5s-3.358-7.5-7.5-7.5zM451.676 120.049h-98.677c-4.143 0-7.5 3.357-7.5 7.5s3.357 7.5 7.5 7.5h98.677c4.143 0 7.5-3.357 7.5-7.5s-3.358-7.5-7.5-7.5z"/><path d="M495.812 10.691h-78.167c-4.107 0-7.688 3.165-7.811 7.27a7.5 7.5 0 007.497 7.73h78.48c.656 0 1.188.532 1.188 1.188v129.332c0 .656-.532 1.188-1.188 1.188H356.599a16.148 16.148 0 00-10.885 4.207l-36.052 32.752c-.157.142-.571.521-1.28.207-.707-.312-.707-.875-.707-1.087V26.88c0-.656.532-1.188 1.188-1.188h78.167c4.107 0 7.688-3.165 7.811-7.27a7.5 7.5 0 00-7.497-7.73h-78.48c-8.941 0-16.188 7.248-16.188 16.188v78.149C266.003 92.992 236.74 86.67 207.319 86.67 93.003 86.67 0 179.673 0 293.989c0 42.416 12.735 83.208 36.83 117.966a7.491 7.491 0 006.171 3.229c1.451 0 2.917-.42 4.205-1.296 3.41-2.317 4.16-7.285 1.815-10.676C26.763 371.019 15 333.257 15 293.989c0-106.045 86.274-192.319 192.319-192.319 29.591 0 58.997 6.9 85.355 19.964v37.615c-25.489-16.219-54.744-24.733-85.355-24.733-87.934 0-159.473 71.539-159.473 159.473s71.539 159.473 159.473 159.473c23.453 0 46.043-4.974 67.147-14.785 3.745-1.741 5.672-6.145 4.023-9.932a7.499 7.499 0 00-10.056-3.805c-19.191 8.973-39.754 13.522-61.114 13.522-81.602 0-147.62-68.005-144.357-150.317 3.108-78.402 67.528-139.476 145.987-138.619 30.413.332 59.284 9.958 83.725 27.895v15.662c0 6.318 3.466 12.251 9.163 14.982a16.38 16.38 0 007.091 1.636c3.916-.001 7.749-1.45 10.819-4.239l1.022-.929a144.422 144.422 0 0131.023 89.456c0 30.813-9.852 60.712-27.929 85.377l-6.228-20.767c-1.19-3.967-5.371-6.222-9.338-5.029a7.498 7.498 0 00-5.029 9.338l10.664 35.56a7.499 7.499 0 009.335 5.03l35.564-10.649c3.968-1.188 6.222-5.368 5.033-9.336s-5.362-6.221-9.336-5.033l-14.839 4.443a159.48 159.48 0 0027.102-88.933c0-36.265-12.353-71.37-34.9-99.561 18.5-16.733 22.681-20.679 23.833-21.64a.69.69 0 01.976.1c27.714 34.158 42.936 76.996 42.936 121.101 0 106.045-86.274 192.319-192.319 192.319-26.971 0-53.053-5.473-77.521-16.267-23.64-10.428-44.652-25.294-62.456-44.185a7.5 7.5 0 00-10.602-.314 7.5 7.5 0 00-.314 10.602c19.186 20.358 41.835 36.38 67.317 47.621 26.389 11.641 54.508 17.543 83.576 17.543 114.316 0 207.319-93.003 207.319-207.319 0-43.763-13.909-86.368-39.42-121.589h120.593c8.941 0 16.188-7.248 16.188-16.188V26.88c.003-8.941-7.245-16.189-16.185-16.189z"/></svg>
