<svg xmlns="http://www.w3.org/2000/svg" viewBox="0 0 54.2 54.2" xml:space="preserve"><path d="M27.1 54.2C12.2 54.2 0 42.1 0 27.1 0 12.2 12.2 0 27.1 0s27.1 12.2 27.1 27.1c0 15-12.1 27.1-27.1 27.1zm0-51.6c-13.5 0-24.5 11-24.5 24.5s11 24.5 24.5 24.5 24.5-11 24.5-24.5c.1-13.5-11-24.5-24.5-24.5zm9.2 13.5c-1.1 0-2 .9-2 2s.9 2 2 2 2-.9 2-2-.9-2-2-2zm-9 2.6c-4.6 0-8.4 3.8-8.4 8.4s3.8 8.4 8.4 8.4c4.6 0 8.4-3.8 8.4-8.4s-3.7-8.4-8.4-8.4zm0 13.8c-3 0-5.4-2.4-5.4-5.4s2.4-5.4 5.4-5.4c3 0 5.4 2.4 5.4 5.4s-2.4 5.4-5.4 5.4zm17-12.4c0-5.7-4.6-10.3-10.3-10.3H20.5c-5.7 0-10.3 4.6-10.3 10.3v13.6c0 5.7 4.6 10.3 10.3 10.3h13.6c5.7 0 10.3-4.6 10.3-10.3V20.1zm-3.2 13.6c0 3.9-3.2 7.1-7.1 7.1H20.5c-3.9 0-7.1-3.2-7.1-7.1V20.1c0-3.9 3.2-7.1 7.1-7.1h13.6c3.9 0 7.1 3.2 7.1 7.1v13.6z"/></svg>
