<svg xmlns="http://www.w3.org/2000/svg" viewBox="0 0 508.996 508.996"><path d="M499.669 121.769l-81.298-81.298c-6.278-6.278-15.274-8.067-23.479-4.669-8.202 3.398-13.298 11.024-13.298 19.903v20.423a.925.925 0 01-.281.673c-.172.169-.37.284-.605.25-.81-.011-1.62-.016-2.432-.016-26.919 0-52.774 5.885-76.848 17.491a7.5 7.5 0 006.514 13.512c22.688-10.938 47.1-16.359 72.561-15.987 4.312.049 8.301-1.567 11.347-4.573a15.83 15.83 0 004.745-11.35V55.705c0-4.057 3.092-5.653 4.039-6.045.948-.393 4.263-1.45 7.131 1.418l81.298 81.298c3.181 3.181 4.933 7.41 4.933 11.908s-1.752 8.728-4.934 11.909l-81.296 81.297c-2.87 2.869-6.185 1.811-7.132 1.419-.947-.393-4.039-1.989-4.039-6.045v-22.392c0-5.265-2.575-10.169-6.889-13.118-19.96-13.656-43.337-20.874-67.603-20.874-44.844 0-84.782 25.104-105.29 62.626 4.389-46.677 28.951-89.671 67.574-117.145a7.5 7.5 0 001.764-10.458 7.498 7.498 0 00-10.459-1.764c-46.704 33.221-74.587 87.228-74.587 144.467 0 9.5.757 19.002 2.249 28.243a7.5 7.5 0 007.402 6.304h.103a7.501 7.501 0 007.333-6.502c6.942-51.748 51.614-90.771 103.911-90.771 21.23 0 41.678 6.312 59.135 18.254.22.15.356.433.356.737v22.392c0 8.879 5.096 16.505 13.298 19.903 8.204 3.397 17.2 1.607 23.479-4.67l81.296-81.298c6.015-6.014 9.327-14.01 9.327-22.516s-3.311-16.499-9.325-22.513zM335.987 319.825c-6.811-6.81-16.201-10.076-25.771-8.956-9.565 1.12-17.951 6.463-23.006 14.662l-14.598 23.677c-4.215 6.838-12.621 9.596-19.989 6.558-28.694-11.836-54.509-28.677-76.727-50.053-24.527-23.596-43.613-51.644-56.728-83.362-3.064-7.413-.321-15.856 6.524-20.077l23.666-14.592c8.199-5.055 13.543-13.44 14.662-23.007 1.12-9.567-2.145-18.96-8.955-25.771l-57.92-57.92c-10.304-10.303-26.16-12.158-38.562-4.511a123.656 123.656 0 00-14.435 10.428 7.284 7.284 0 00-.443.366C9.12 116.48-7.095 162.836 2.93 207.84c12.86 57.732 47.404 116.988 97.269 166.852 29.92 29.919 62.868 54.136 97.932 71.979a7.5 7.5 0 006.803-13.369c-33.182-16.885-65.73-40.819-94.127-69.216-47.876-47.875-80.987-104.522-93.236-159.508-8.304-37.278 3.915-75.612 30.838-101.371l79.857 79.858-10.446 6.441c-13.143 8.104-18.405 24.327-12.513 38.577 13.91 33.644 34.16 63.4 60.188 88.44 23.578 22.685 50.968 40.553 81.407 53.11 14.197 5.856 30.381.578 38.477-12.552l6.447-10.456 79.851 79.851c-25.759 26.925-64.096 39.144-101.373 30.839-13.438-2.994-27.243-7.336-41.031-12.907a7.5 7.5 0 00-5.619 13.909c14.551 5.878 29.148 10.468 43.389 13.64a122.238 122.238 0 0026.604 2.932c42.066.193 82.665-22.414 104.764-58.589 7.646-12.401 5.792-28.258-4.51-38.561zM59.988 93.572a108.242 108.242 0 016.47-4.33 16.24 16.24 0 0120.081 2.349l57.92 57.92a16.208 16.208 0 014.664 13.421 16.203 16.203 0 01-7.636 11.981l-.098.06zM385.66 408.397l-.02.033a108.95 108.95 0 01-4.328 6.467l-81.395-81.395.06-.098c2.633-4.27 7-7.053 11.981-7.636a16.217 16.217 0 0113.422 4.664l57.912 57.912a16.243 16.243 0 012.368 20.053z"/></svg>
