<svg xmlns="http://www.w3.org/2000/svg" viewBox="-43 0 512 512.001"><path d="M337.809 0c-48.575 0-88.094 39.52-88.094 88.094v17.574a7.5 7.5 0 007.5 7.5 7.5 7.5 0 007.5-7.5V88.094c0-40.305 32.789-73.094 73.094-73.094 40.304 0 73.097 32.79 73.097 73.094v286.691c-15.84-23.492-42.695-38.973-73.097-38.973s-57.254 15.481-73.094 38.973V137a7.5 7.5 0 00-7.5-7.5 7.5 7.5 0 00-7.5 7.5v24.168H101.633a7.5 7.5 0 00-5.36 2.254l-.34.348-.003.003L2.14 259.61c-.066.067-.12.137-.183.207-.094.102-.187.204-.273.309-.063.078-.118.156-.176.238-.09.114-.176.23-.258.352-.047.07-.086.144-.133.219-.082.132-.164.27-.242.41-.031.062-.059.125-.09.187a7.368 7.368 0 00-.219.473c-.023.055-.043.113-.062.172a5.66 5.66 0 00-.18.511c-.02.06-.031.122-.047.184-.05.172-.097.344-.129.52-.02.09-.027.183-.043.277-.023.148-.05.293-.066.445-.027.246-.039.492-.039.742v115.48c0 4.142 3.36 7.5 7.5 7.5a7.5 7.5 0 007.5-7.5V272.759h86.234a7.5 7.5 0 007.5-7.5v-89.09h140.98v247.766c.009 30.39 15.49 57.234 38.973 73.066H15v-86a7.5 7.5 0 10-15 0v93.5a7.5 7.5 0 007.5 7.5h327.027c.258 0 .512-.012.762-.035.836.023 1.676.035 2.52.035 48.574 0 88.093-39.52 88.093-88.094V88.094C425.906 39.52 386.382 0 337.81 0zM24.945 257.758l68.79-70.293v70.293zM337.81 497c-40.305 0-73.094-32.79-73.094-73.094s32.789-73.094 73.094-73.094c40.304 0 73.097 32.79 73.097 73.094S378.113 497 337.81 497zm0 0"/><path d="M337.809 389.54c-18.946 0-34.364 15.417-34.364 34.366s15.418 34.364 34.364 34.364c18.949 0 34.367-15.415 34.367-34.364s-15.418-34.367-34.367-34.367zm0 53.73c-10.676 0-19.364-8.688-19.364-19.364 0-10.68 8.688-19.367 19.364-19.367 10.68 0 19.367 8.688 19.367 19.367 0 10.676-8.688 19.364-19.367 19.364zm0 0"/></svg>
