<svg xmlns="http://www.w3.org/2000/svg" viewBox="0 0 1000 1000" xml:space="preserve"><path d="M500 0C223.9 0 0 223.9 0 500s223.9 500 500 500 500-223.9 500-500S776.1 0 500 0zm238.4 325.1c-1.4 20.2-13 91-24.6 167.6l-36.1 226.9s-2.9 33.2-27.5 39c-24.6 5.8-65-20.2-72.3-26-5.8-4.3-108.4-69.4-146-101.2-10.1-8.7-21.7-26 1.4-46.2 52-47.7 114.2-106.9 151.7-144.5 17.3-17.3 34.7-57.8-37.6-8.7L343.9 569.4s-23.1 14.5-66.5 1.4c-43.4-13-93.9-30.3-93.9-30.3s-34.7-21.7 24.6-44.8L544.8 357c33.2-14.5 146-60.7 146-60.7s52-20.3 47.6 28.8z"/></svg>
