<svg xmlns="http://www.w3.org/2000/svg" viewBox="0 0 54.6 54.6" xml:space="preserve"><path d="M27.3 54.6C12.2 54.6 0 42.3 0 27.3 0 12.2 12.2 0 27.3 0c15 0 27.3 12.2 27.3 27.3 0 15-12.3 27.3-27.3 27.3zm0-51.7c-13.4 0-24.4 11-24.4 24.4 0 13.4 10.9 24.4 24.4 24.4 13.4 0 24.4-10.9 24.4-24.4 0-13.4-11-24.4-24.4-24.4z"/><path d="M26.9 37.6h2.2s.7-.1 1-.4c.3-.3.3-1 .3-1s0-2.9 1.3-3.3c1.3-.4 3 2.8 4.9 4.1 1.4.9 2.4.7 2.4.7l4.9-.1s2.5-.2 1.3-2.2c-.1-.2-.7-1.5-3.6-4.2-3-2.8-2.6-2.4 1-7.3 2.2-3 3.1-4.8 2.8-5.6-.3-.7-1.9-.5-1.9-.5H38s-.4-.1-.7.1c-.3.2-.5.6-.5.6s-.9 2.3-2 4.3C32.4 27 31.4 27.2 31 27c-.9-.6-.7-2.4-.7-3.7 0-4 .6-5.7-1.2-6.1-.6-.1-1-.2-2.6-.3-2 0-3.6 0-4.5.5-.6.3-1.1 1-.8 1 .4 0 1.2.2 1.6.8.6.8.5 2.5.5 2.5s.3 4.7-.8 5.3c-.7.4-1.7-.4-3.9-4.2-1.1-1.9-2-4-2-4s-.2-.4-.5-.6c-.4-.3-.8-.3-.8-.3h-5.2s-.8 0-1.1.4c-.3.3 0 .9 0 .9s4.1 9.5 8.7 14.3c4.4 4.4 9.2 4.1 9.2 4.1z" fill-rule="evenodd" clip-rule="evenodd" /></svg>
