<svg xmlns="http://www.w3.org/2000/svg" viewBox="0 0 512 512"><path d="M33.696 101.058v.416c0 4.143 3.358 7.5 7.5 7.5s7.5-3.357 7.5-7.5v-.416c0-4.143-3.358-7.5-7.5-7.5s-7.5 3.357-7.5 7.5zM264.526 101.474v-.416c0-4.143-3.357-7.5-7.5-7.5s-7.5 3.357-7.5 7.5v.416a7.5 7.5 0 0015 0zM480.357 101.474v-.416c0-4.143-3.357-7.5-7.5-7.5s-7.5 3.357-7.5 7.5v.416c0 4.143 3.357 7.5 7.5 7.5s7.5-3.358 7.5-7.5z"/><path d="M504.5 64.726H90.544c-4.142 0-7.5 3.357-7.5 7.5s3.358 7.5 7.5 7.5H497v43.081H15V79.726h45.558c4.142 0 7.5-3.357 7.5-7.5s-3.358-7.5-7.5-7.5H7.5a7.5 7.5 0 00-7.5 7.5v335.245a7.5 7.5 0 007.5 7.5h19.33v17.303H7.5c-4.142 0-7.5 3.357-7.5 7.5s3.358 7.5 7.5 7.5h496.999c4.143 0 7.5-3.357 7.5-7.5s-3.357-7.5-7.5-7.5h-17.277v-17.303H504.5c4.143 0 7.5-3.357 7.5-7.5V72.226a7.5 7.5 0 00-7.5-7.5zm-7.5 73.081V341.89h-28.081V137.807zm-226.959 0v130.337c0 4.143 3.357 7.5 7.5 7.5s7.5-3.357 7.5-7.5V137.807h168.878V341.89H285.041v-43.759c0-4.143-3.357-7.5-7.5-7.5s-7.5 3.357-7.5 7.5v43.759H241.96V137.807zM58.082 341.89V137.807H226.96V341.89zm-15-204.083V341.89H15V137.807zM41.83 432.274v-17.303h42.276v17.303zm179.058-17.303v17.303H99.106v-17.303zm15 17.303v-17.303h42.276v17.303zm179.059-17.303v17.303H293.165v-17.303zm57.275 17.303h-42.275v-17.303h42.275zM497 399.971H15V356.89h482z"/><path d="M41.196 370.722a7.5 7.5 0 00-7.5 7.5v.416c0 4.143 3.358 7.5 7.5 7.5s7.5-3.357 7.5-7.5v-.416a7.5 7.5 0 00-7.5-7.5zM257.026 370.722a7.5 7.5 0 00-7.5 7.5v.416c0 4.143 3.358 7.5 7.5 7.5s7.5-3.357 7.5-7.5v-.416a7.5 7.5 0 00-7.5-7.5zM472.857 386.138c4.143 0 7.5-3.357 7.5-7.5v-.416c0-4.143-3.357-7.5-7.5-7.5s-7.5 3.357-7.5 7.5v.416c0 4.143 3.357 7.5 7.5 7.5z"/></svg>
