<svg xmlns="http://www.w3.org/2000/svg" viewBox="0 0 54.6 54.6" xml:space="preserve"><path d="M27.3 54.6C12.2 54.6 0 42.3 0 27.3 0 12.2 12.2 0 27.3 0c15 0 27.3 12.2 27.3 27.3 0 15-12.3 27.3-27.3 27.3zm0-51.7c-13.4 0-24.4 11-24.4 24.4 0 13.4 10.9 24.4 24.4 24.4 13.4 0 24.4-10.9 24.4-24.4 0-13.4-11-24.4-24.4-24.4z"/><path d="M43.6 23.2c0-3.9-3.1-7-7-7H18.4c-3.9 0-7 3.1-7 7v8.5c0 3.9 3.1 7 7 7h18.2c3.9 0 7-3.1 7-7v-8.5zm-11.4 4.6-7.3 4c-.3.2-.6-.1-.6-.4v-8.2c0-.4.3-.6.6-.4l7.3 4.2c.3.2.3.7 0 .8z"/></svg>
